<svg id="Layer_1" data-name="Layer 1" xmlns="http://www.w3.org/2000/svg" viewBox="0 0 40 40"><defs><style>.cls-1{fill:#fff;}</style></defs><title>backspace_white</title><path class="cls-1" d="M31.14,10.79H14.6a3,3,0,0,0-2,.72L5.08,18.17a2.39,2.39,0,0,0,0,3.66l7.57,6.66a3,3,0,0,0,2,.72H31.14a2.69,2.69,0,0,0,2.8-2.55V13.34A2.69,2.69,0,0,0,31.14,10.79Zm.94,15.87c0,.37-.43.68-.94.68H14.6a1.1,1.1,0,0,1-.72-.25L6.31,20.43a.53.53,0,0,1,0-.85l7.57-6.66a1.1,1.1,0,0,1,.72-.25H31.14c.51,0,.94.31.94.68Z"/><line class="cls-1" x1="21.55" y1="20.66" x2="18.18" y2="24.03"/><line class="cls-1" x1="26.24" y1="15.97" x2="22.87" y2="19.34"/><line class="cls-1" x1="26.24" y1="24.03" x2="22.87" y2="20.66"/><line class="cls-1" x1="21.55" y1="19.34" x2="18.18" y2="15.97"/><path class="cls-1" d="M26.9,23.37a.93.93,0,1,1-1.32,1.32l-3.37-3.37-3.37,3.37a.93.93,0,1,1-1.32-1.32L20.89,20l-3.37-3.37a.93.93,0,0,1,1.32-1.32l3.37,3.37,3.37-3.37a.93.93,0,0,1,1.32,1.32L23.53,20Z"/></svg>