<svg id="Layer_1" data-name="Layer 1" xmlns="http://www.w3.org/2000/svg" viewBox="0 0 40 40"><defs><style>.cls-1{fill:#29abe2;}</style></defs><title>close_toggle</title><path class="cls-1" d="M36,5.15H4A2.78,2.78,0,0,0,1.42,8.07V31.93A2.78,2.78,0,0,0,4,34.85H36a2.78,2.78,0,0,0,2.62-2.92V8.07A2.78,2.78,0,0,0,36,5.15Zm-10.16,23a.6.6,0,0,1-.53.33.65.65,0,0,1-.19,0L20,26.62l-5.08,1.84a.59.59,0,0,1-.72-.29.76.76,0,0,1,.09-.85L18,23.15h0l1.52-1.7a.59.59,0,0,1,.88,0L22,23.15h0l3.74,4.17A.76.76,0,0,1,25.8,28.17Zm3.08-6.77a.92.92,0,0,1-.8.5,1,1,0,0,1-.3,0L27,21.57,20,19l-7,2.54-.79.28a.9.9,0,0,1-1.1-.45,1.13,1.13,0,0,1,.14-1.3l8.07-9a.9.9,0,0,1,1.34,0l8.07,9A1.13,1.13,0,0,1,28.88,21.4Z"/></svg>