<svg id="Layer_1" data-name="Layer 1" xmlns="http://www.w3.org/2000/svg" viewBox="0 0 40 40"><defs><style>.cls-1{fill:#1a1a1a;}</style></defs><title>dash_menu</title><path class="cls-1" d="M3.52,20.83V32A4.51,4.51,0,0,0,8,36.5H19.19V20.83ZM17.19,34.5H8A2.5,2.5,0,0,1,5.52,32V22.83H17.19Z"/><path class="cls-1" d="M3.52,7.25V18.42H19.19V2.75H8A4.51,4.51,0,0,0,3.52,7.25Zm13.67,9.17H5.52V7.25A2.5,2.5,0,0,1,8,4.75h9.17Z"/><path class="cls-1" d="M22.1,36.5H33.27a4.51,4.51,0,0,0,4.5-4.5V20.83H22.1Zm2-13.67H35.77V32a2.5,2.5,0,0,1-2.5,2.5H24.1Z"/><path class="cls-1" d="M33.27,2.75H22.1V18.42H37.77V7.25A4.51,4.51,0,0,0,33.27,2.75Zm2.5,13.67H24.1V4.75h9.17a2.5,2.5,0,0,1,2.5,2.5Z"/></svg>