<svg id="Layer_1" data-name="Layer 1" xmlns="http://www.w3.org/2000/svg" viewBox="0 0 300.33 300.33"><defs><style>.cls-1{fill:#f14950;}.cls-2{fill:#b3b3b3;}.cls-3{fill:#29abe2;}.cls-4{opacity:0.07;}.cls-5,.cls-6{fill:#fff;}.cls-5{opacity:0.13;}.cls-6{font-size:19.19px;font-family:MyriadPro-Bold, Myriad Pro;font-weight:700;}.cls-7{fill:#999;}.cls-8{fill:#f2f2f2;}</style></defs><title>failed</title><path class="cls-1" d="M98.22,62.69V56l-5.13-9.59h4.19l1.66,3.9c.51,1.18.84,2,1.25,3.11h0c.36-1,.75-2,1.23-3.11l1.64-3.9h4.12l-5.35,9.47v6.77Z"/><path class="cls-1" d="M117.88,56.67A5.91,5.91,0,0,1,111.66,63a5.77,5.77,0,0,1-6.1-6.07,5.88,5.88,0,0,1,6.29-6.24A5.73,5.73,0,0,1,117.88,56.67Zm-8.53.12c0,2,.84,3.54,2.41,3.54s2.34-1.42,2.34-3.54c0-1.76-.67-3.54-2.34-3.54S109.35,55.05,109.35,56.79Z"/><path class="cls-1" d="M131.25,58.91c0,1.54,0,2.79.1,3.78h-3.18L128,61h-.07A4.2,4.2,0,0,1,124.24,63c-2.38,0-4.14-1.49-4.14-5.13V50.91h3.69v6.34c0,1.71.55,2.75,1.83,2.75a2,2,0,0,0,1.83-1.28,2,2,0,0,0,.12-.8v-7h3.69Z"/><path class="cls-1" d="M150.48,45.58V59.17c0,1.33,0,2.72.1,3.52h-3.25L147.15,61h0a4.11,4.11,0,0,1-3.69,2c-2.79,0-5-2.39-5-6,0-4,2.46-6.26,5.28-6.26A3.59,3.59,0,0,1,146.77,52h0V45.58ZM146.81,55.9a5.93,5.93,0,0,0,0-.65,2.2,2.2,0,0,0-2.14-1.81c-1.66,0-2.53,1.49-2.53,3.35s1,3.25,2.51,3.25a2.14,2.14,0,0,0,2.12-1.76,3.1,3.1,0,0,0,.1-.84Z"/><path class="cls-1" d="M157.2,47.63a1.84,1.84,0,0,1-2,1.83,1.84,1.84,0,1,1,0-3.69A1.84,1.84,0,0,1,157.2,47.63Zm-3.78,15.06V50.91h3.66V62.69Z"/><path class="cls-1" d="M171.44,45.58V59.17c0,1.33,0,2.72.1,3.52h-3.25L168.11,61h0a4.11,4.11,0,0,1-3.69,2c-2.79,0-5-2.39-5-6,0-4,2.46-6.26,5.28-6.26A3.59,3.59,0,0,1,167.72,52h0V45.58ZM167.77,55.9a5.93,5.93,0,0,0,0-.65,2.2,2.2,0,0,0-2.14-1.81c-1.66,0-2.53,1.49-2.53,3.35S164,60,165.56,60a2.14,2.14,0,0,0,2.12-1.76,3.1,3.1,0,0,0,.1-.84Z"/><path class="cls-1" d="M174.37,54.67c0-1.47,0-2.72-.1-3.76h3.18l.17,1.61h.07a4.31,4.31,0,0,1,3.64-1.88c2.41,0,4.22,1.59,4.22,5.06v7h-3.66V56.16c0-1.52-.53-2.55-1.85-2.55A2,2,0,0,0,178.18,55a2.51,2.51,0,0,0-.14.92v6.79h-3.66Z"/><path class="cls-1" d="M192.13,46.19a32,32,0,0,1-2.89,6.53l-2.22.19a36.27,36.27,0,0,0,1.66-6.51Z"/><path class="cls-1" d="M197.72,47.54v3.37h2.63v2.7h-2.63v4.27c0,1.42.34,2.07,1.45,2.07a6,6,0,0,0,1.08-.1l0,2.77a7.18,7.18,0,0,1-2.39.31,3.81,3.81,0,0,1-2.75-1,4.89,4.89,0,0,1-1-3.49V53.61h-1.57v-2.7h1.57V48.36Z"/><path class="cls-1" d="M114.43,72.13c0,.75-.1,1.74-.1,3.49V82.2c0,2.26-.46,4.12-1.78,5.3a7.27,7.27,0,0,1-4.8,1.45,9.18,9.18,0,0,1-4.24-.92l.72-2.77a7.24,7.24,0,0,0,3.42.89A2.81,2.81,0,0,0,110.72,83v-.77h0a3.77,3.77,0,0,1-3.18,1.54c-2.92,0-5-2.36-5-5.76,0-3.78,2.46-6.19,5.35-6.19a3.55,3.55,0,0,1,3.23,1.66h0l.12-1.4Zm-3.76,4.8a2.91,2.91,0,0,0-.07-.67,2,2,0,0,0-2-1.61c-1.32,0-2.41,1.2-2.41,3.35,0,1.76.87,3.13,2.41,3.13a2,2,0,0,0,1.93-1.49,3.12,3.12,0,0,0,.12-1Z"/><path class="cls-1" d="M128.38,80.13c0,1.54,0,2.79.1,3.78H125.3l-.17-1.66h-.07a4.2,4.2,0,0,1-3.69,1.93c-2.38,0-4.14-1.49-4.14-5.13V72.13h3.69v6.34c0,1.71.55,2.75,1.83,2.75a2,2,0,0,0,1.83-1.28,2,2,0,0,0,.12-.8v-7h3.69Z"/><path class="cls-1" d="M134.14,79.19c.12,1.52,1.61,2.24,3.32,2.24a10.37,10.37,0,0,0,3.25-.48l.48,2.48a11.63,11.63,0,0,1-4.27.72c-4,0-6.29-2.31-6.29-6,0-3,1.85-6.29,6-6.29,3.81,0,5.25,3,5.25,5.88a8.64,8.64,0,0,1-.12,1.45Zm4.31-2.51a2.13,2.13,0,0,0-2.07-2.39,2.4,2.4,0,0,0-2.26,2.39Z"/><path class="cls-1" d="M144,80.7a7.17,7.17,0,0,0,3.16.89c1.11,0,1.57-.39,1.57-1s-.36-.89-1.73-1.35c-2.43-.82-3.37-2.14-3.35-3.54,0-2.19,1.88-3.86,4.8-3.86a7.91,7.91,0,0,1,3.33.67l-.65,2.53a5.78,5.78,0,0,0-2.55-.67c-.89,0-1.4.36-1.4,1s.46.84,1.9,1.35c2.24.77,3.18,1.9,3.21,3.64,0,2.19-1.73,3.81-5.11,3.81a8.34,8.34,0,0,1-3.81-.82Z"/><path class="cls-1" d="M154.47,80.7a7.17,7.17,0,0,0,3.16.89c1.11,0,1.57-.39,1.57-1s-.36-.89-1.73-1.35c-2.43-.82-3.37-2.14-3.35-3.54,0-2.19,1.88-3.86,4.8-3.86a7.91,7.91,0,0,1,3.33.67l-.65,2.53a5.78,5.78,0,0,0-2.55-.67c-.89,0-1.4.36-1.4,1s.46.84,1.9,1.35c2.24.77,3.18,1.9,3.21,3.64,0,2.19-1.73,3.81-5.11,3.81a8.34,8.34,0,0,1-3.81-.82Z"/><path class="cls-1" d="M167.77,79.19c.12,1.52,1.61,2.24,3.32,2.24a10.37,10.37,0,0,0,3.25-.48l.48,2.48a11.63,11.63,0,0,1-4.27.72c-4,0-6.29-2.31-6.29-6,0-3,1.85-6.29,6-6.29,3.81,0,5.25,3,5.25,5.88a8.64,8.64,0,0,1-.12,1.45Zm4.31-2.51A2.13,2.13,0,0,0,170,74.29a2.4,2.4,0,0,0-2.26,2.39Z"/><path class="cls-1" d="M189.09,66.8V80.39c0,1.33,0,2.72.1,3.52h-3.25l-.17-1.73h0a4.11,4.11,0,0,1-3.69,2c-2.79,0-5-2.39-5-6,0-4,2.46-6.26,5.28-6.26a3.59,3.59,0,0,1,3.11,1.33h0V66.8Zm-3.66,10.31a5.93,5.93,0,0,0,0-.65,2.2,2.2,0,0,0-2.14-1.81c-1.66,0-2.53,1.49-2.53,3.35s1,3.25,2.51,3.25a2.14,2.14,0,0,0,2.12-1.76,3.1,3.1,0,0,0,.1-.84Z"/><path class="cls-1" d="M191.62,82a2.16,2.16,0,1,1,2.17,2.19A2.09,2.09,0,0,1,191.62,82Zm.8-3.4-.55-10.92h3.83l-.53,10.92Z"/><rect class="cls-2" x="82.33" y="239.33" width="135.67" height="31.7" rx="4.96" ry="4.96"/><rect class="cls-3" x="82.33" y="236.59" width="135.67" height="31.7" rx="4.96" ry="4.96"/><path class="cls-4" d="M218,243.39v6.07c-2.42-.82-6.94-1-15.33,1.23-1.8.47-3.78,1-6,1.75-24.56,8-68-4.55-88.42-3.86s-24.2-9.37-24.2-9.37h0a8.69,8.69,0,0,1,6.37-2.62H209.88C214.35,236.59,218,239.64,218,243.39Z"/><path class="cls-5" d="M218,249.46v12c0,3.74-3.65,6.8-8.12,6.8H90.46c-4.47,0-8.12-3.06-8.12-6.8v-18.1a6.1,6.1,0,0,1,1.74-4.18s3.73,10.06,24.2,9.37,63.86,11.83,88.42,3.86c2.19-.71,4.18-1.29,6-1.75C211.06,248.49,215.58,248.64,218,249.46Z"/><text class="cls-6" transform="translate(113.22 258.51)">Try Again</text><path class="cls-7" d="M150.8,117.18l2.95,6a.7.7,0,0,0,.53.38l6.59,1a.7.7,0,0,1,.39,1.2l-4.77,4.65a.7.7,0,0,0-.2.62l1.13,6.56a.7.7,0,0,1-1,.74l-5.89-3.1a.7.7,0,0,0-.65,0l-5.89,3.1a.7.7,0,0,1-1-.74l1.13-6.56a.7.7,0,0,0-.2-.62l-4.77-4.65a.7.7,0,0,1,.39-1.2l6.59-1a.7.7,0,0,0,.53-.38l2.95-6A.7.7,0,0,1,150.8,117.18Z"/><path class="cls-7" d="M185.18,120.7l2.95,6a.7.7,0,0,0,.53.38l6.59,1a.7.7,0,0,1,.39,1.2l-4.77,4.65a.7.7,0,0,0-.2.62l1.13,6.56a.7.7,0,0,1-1,.74l-5.89-3.1a.7.7,0,0,0-.65,0l-5.89,3.1a.7.7,0,0,1-1-.74l1.13-6.56a.7.7,0,0,0-.2-.62l-4.77-4.65a.7.7,0,0,1,.39-1.2l6.59-1a.7.7,0,0,0,.53-.38l2.95-6A.7.7,0,0,1,185.18,120.7Z"/><path class="cls-7" d="M116.41,120.7l2.95,6a.7.7,0,0,0,.53.38l6.59,1a.7.7,0,0,1,.39,1.2l-4.77,4.65a.7.7,0,0,0-.2.62L123,141a.7.7,0,0,1-1,.74l-5.89-3.1a.7.7,0,0,0-.65,0l-5.89,3.1a.7.7,0,0,1-1-.74l1.13-6.56a.7.7,0,0,0-.2-.62l-4.77-4.65a.7.7,0,0,1,.39-1.2l6.59-1a.7.7,0,0,0,.53-.38l2.95-6A.7.7,0,0,1,116.41,120.7Z"/><path class="cls-8" d="M150.8,113.66l2.95,6a.7.7,0,0,0,.53.38l6.59,1a.7.7,0,0,1,.39,1.2l-4.77,4.65a.7.7,0,0,0-.2.62L157.4,134a.7.7,0,0,1-1,.74l-5.89-3.1a.7.7,0,0,0-.65,0l-5.89,3.1a.7.7,0,0,1-1-.74l1.13-6.56a.7.7,0,0,0-.2-.62l-4.77-4.65a.7.7,0,0,1,.39-1.2l6.59-1a.7.7,0,0,0,.53-.38l2.95-6A.7.7,0,0,1,150.8,113.66Z"/><path class="cls-2" d="M156.71,135.13a1,1,0,0,1-.47-.12l-5.89-3.1a.39.39,0,0,0-.36,0l-5.89,3.1a1,1,0,0,1-1.47-1.07l1.13-6.56a.39.39,0,0,0-.11-.35l-4.77-4.65a1,1,0,0,1,.56-1.73l6.59-1a.39.39,0,0,0,.29-.21l2.95-6a1,1,0,0,1,1.82,0h0l2.95,6a.39.39,0,0,0,.29.21l6.59,1a1,1,0,0,1,.56,1.73L156.7,127a.39.39,0,0,0-.11.35l1.13,6.56a1,1,0,0,1-1,1.18Zm-6.55-3.88a1,1,0,0,1,.47.12l5.89,3.1a.39.39,0,0,0,.57-.41L156,127.49a1,1,0,0,1,.29-.9l4.77-4.65a.39.39,0,0,0-.22-.67l-6.59-1a1,1,0,0,1-.76-.55l-2.95-6h0a.4.4,0,0,0-.7,0l-2.95,6a1,1,0,0,1-.76.55l-6.59,1a.39.39,0,0,0-.22.67l4.77,4.65a1,1,0,0,1,.29.9l-1.12,6.56a.39.39,0,0,0,.57.41l5.89-3.1A1,1,0,0,1,150.17,131.25Z"/><path class="cls-8" d="M185.18,117.18l2.95,6a.7.7,0,0,0,.53.38l6.59,1a.7.7,0,0,1,.39,1.2l-4.77,4.65a.7.7,0,0,0-.2.62l1.13,6.56a.7.7,0,0,1-1,.74l-5.89-3.1a.7.7,0,0,0-.65,0l-5.89,3.1a.7.7,0,0,1-1-.74l1.13-6.56a.7.7,0,0,0-.2-.62l-4.77-4.65a.7.7,0,0,1,.39-1.2l6.59-1a.7.7,0,0,0,.53-.38l2.95-6A.7.7,0,0,1,185.18,117.18Z"/><path class="cls-2" d="M178,138.65a1,1,0,0,1-1-1.18l1.13-6.56a.39.39,0,0,0-.11-.35l-4.77-4.65a1,1,0,0,1,.56-1.73l6.59-1a.39.39,0,0,0,.29-.21l2.95-6a1,1,0,0,1,1.82,0l2.95,6a.39.39,0,0,0,.29.21l6.59,1a1,1,0,0,1,.56,1.73l-4.77,4.65a.39.39,0,0,0-.11.35l1.13,6.56a1,1,0,0,1-1.47,1.07l-5.89-3.1a.39.39,0,0,0-.36,0l-5.89,3.1A1,1,0,0,1,178,138.65Zm6.55-21.55a.38.38,0,0,0-.35.22l-2.95,6a1,1,0,0,1-.76.55l-6.59,1a.39.39,0,0,0-.22.67l4.77,4.65a1,1,0,0,1,.29.9l-1.12,6.56a.39.39,0,0,0,.57.41l5.89-3.1a1,1,0,0,1,.94,0l5.89,3.1a.39.39,0,0,0,.57-.41L190.36,131a1,1,0,0,1,.29-.9l4.77-4.65a.39.39,0,0,0-.22-.67l-6.59-1a1,1,0,0,1-.76-.55l-2.95-6A.38.38,0,0,0,184.56,117.1Z"/><path class="cls-8" d="M116.41,117.18l2.95,6a.7.7,0,0,0,.53.38l6.59,1a.7.7,0,0,1,.39,1.2l-4.77,4.65a.7.7,0,0,0-.2.62l1.13,6.56a.7.7,0,0,1-1,.74l-5.89-3.1a.7.7,0,0,0-.65,0l-5.89,3.1a.7.7,0,0,1-1-.74l1.13-6.56a.7.7,0,0,0-.2-.62l-4.77-4.65a.7.7,0,0,1,.39-1.2l6.59-1a.7.7,0,0,0,.53-.38l2.95-6A.7.7,0,0,1,116.41,117.18Z"/><path class="cls-2" d="M109.23,138.65a1,1,0,0,1-1-1.18l1.13-6.56a.39.39,0,0,0-.11-.35l-4.77-4.65a1,1,0,0,1,.56-1.73l6.59-1a.39.39,0,0,0,.29-.21l2.95-6a1,1,0,0,1,1.82,0l2.95,6a.39.39,0,0,0,.29.21l6.59,1a1,1,0,0,1,.56,1.73l-4.77,4.65a.39.39,0,0,0-.11.35l1.13,6.56a1,1,0,0,1-1.47,1.07l-5.89-3.1a.39.39,0,0,0-.36,0l-5.89,3.1A1,1,0,0,1,109.23,138.65Zm6.55-21.55a.38.38,0,0,0-.35.22l-2.95,6a1,1,0,0,1-.76.55l-6.59,1a.39.39,0,0,0-.22.67l4.77,4.65a1,1,0,0,1,.29.9l-1.12,6.56a.39.39,0,0,0,.57.41l5.89-3.1a1,1,0,0,1,.94,0l5.89,3.1a.39.39,0,0,0,.57-.41L121.58,131a1,1,0,0,1,.29-.9l4.77-4.65a.39.39,0,0,0-.22-.67l-6.59-1a1,1,0,0,1-.76-.55l-2.95-6A.38.38,0,0,0,115.78,117.1Z"/></svg>