<svg id="Layer_1" data-name="Layer 1" xmlns="http://www.w3.org/2000/svg" viewBox="0 0 40 40"><defs><style>.cls-1{fill:#29abe2;}</style></defs><title>howtoplay</title><path class="cls-1" d="M20.31,3.13A17.26,17.26,0,1,0,37.56,20.39,17.26,17.26,0,0,0,20.31,3.13Zm0,31.17A13.91,13.91,0,1,1,34.22,20.39,13.9,13.9,0,0,1,20.31,34.3Z"/><path class="cls-1" d="M19,23.93l-.05-.71a6.05,6.05,0,0,1,1.63-4.45c1-1.22,1.71-2.17,1.71-3.23s-.71-1.9-2.23-1.93a4.79,4.79,0,0,0-2.72.81L16.52,12a8.27,8.27,0,0,1,4.26-1.11c3.37,0,4.92,2,4.92,4.13,0,2-1.19,3.31-2.36,4.64a5.07,5.07,0,0,0-1.44,3.67l0,.57Zm-.68,3.78a2.07,2.07,0,1,1,2.06,2.12A2,2,0,0,1,18.31,27.71Z"/></svg>