<svg id="Layer_1" data-name="Layer 1" xmlns="http://www.w3.org/2000/svg" viewBox="0 0 415.33 415.33"><defs><style>.cls-1{font-size:19.3px;}.cls-1,.cls-3{font-family:MyriadPro-Regular, Myriad Pro;}.cls-2{font-family:MyriadPro-Semibold, Myriad Pro;}.cls-2,.cls-6,.cls-7{font-weight:700;}.cls-3{font-size:16.54px;}.cls-4{fill:#39b54a;}.cls-5{fill:#ccc;}.cls-6,.cls-7{font-size:21.64px;font-family:MyriadPro-Bold, Myriad Pro;}.cls-6{fill:#fff;}.cls-8{fill:#ede31d;}.cls-9{fill:#b3b3b3;}.cls-10{fill:red;}.cls-11{fill:none;stroke:#f2f2f2;stroke-miterlimit:10;}</style></defs><title>howtoplay_image</title><text class="cls-1" transform="translate(30.13 41.05)">Guess the <tspan class="cls-2" x="83" y="0">WORDLE</tspan><tspan x="156.87" y="0" xml:space="preserve"> in 6 tries.</tspan></text><text class="cls-3" transform="translate(30.58 78.46)">After each guess,the color of the tiles will change to <tspan x="0" y="19.85">the show how close your guess was to the word.</tspan></text><rect class="cls-4" x="30.58" y="145.45" width="30.21" height="30.21"/><path class="cls-5" d="M61.24,176.12H30.13V145H61.24ZM31,175.21H60.34V145.91H31Z"/><path class="cls-5" d="M98.06,176.57H66v-32h32Zm-30.21-1.8H96.26V146.36H67.85Z"/><path class="cls-5" d="M134.43,176.57h-32v-32h32Zm-30.21-1.8h28.41V146.36H104.22Z"/><path class="cls-5" d="M170.8,176.57h-32v-32h32Zm-30.21-1.8H169V146.36H140.59Z"/><path class="cls-5" d="M207.18,176.57h-32v-32h32ZM177,174.76h28.41V146.36H177Z"/><text class="cls-6" transform="translate(36.07 169.2)">W</text><text class="cls-7" transform="translate(76.46 169.2)">E</text><text class="cls-7" transform="translate(111.69 169.2)">A</text><text class="cls-7" transform="translate(148.93 169.2)">R</text><text class="cls-7" transform="translate(185.38 169.2)">Y</text><text class="cls-3" transform="translate(30.14 200.99)">The letter <tspan class="cls-2" x="69.32" y="0">W</tspan><tspan x="83.69" y="0" xml:space="preserve"> is in the word but in correct spot.</tspan></text><path class="cls-5" d="M62.14,266.91h-32v-32h32Zm-30.21-1.8H60.34V236.7H31.93Z"/><path class="cls-5" d="M98.51,266.91h-32v-32h32Zm-30.21-1.8H96.71V236.7H68.3Z"/><rect class="cls-8" x="103.77" y="235.8" width="30.21" height="30.21"/><path class="cls-9" d="M134.43,266.46H103.32V235.35h31.11Zm-30.21-.9h29.31V236.25H104.22Z"/><path class="cls-5" d="M171.25,266.91h-32v-32h32ZM141,265.11h28.41V236.7H141Z"/><path class="cls-5" d="M207.63,266.91h-32v-32h32Zm-30.21-1.8h28.41V236.7H177.42Z"/><text class="cls-7" transform="translate(40.05 258.46)">P</text><text class="cls-7" transform="translate(79.61 258.46)">I</text><text class="cls-6" transform="translate(113.52 258.46)">L</text><text class="cls-7" transform="translate(147.65 258.46)">O</text><text class="cls-7" transform="translate(185.83 258.46)">T</text><text class="cls-3" transform="translate(30.14 285.25)">The letter <tspan class="cls-2" x="69.32" y="0">L</tspan><tspan x="77.47" y="0" xml:space="preserve"> is in the word but in wrong spot.</tspan></text><path class="cls-5" d="M62.14,349.18h-32v-32h32Zm-30.21-1.8H60.34V319H31.93Z"/><path class="cls-5" d="M98.51,349.18h-32v-32h32Zm-30.21-1.8H96.71V319H68.3Z"/><path class="cls-5" d="M134.88,349.18h-32v-32h32Zm-30.21-1.8h28.41V319H104.67Z"/><rect class="cls-10" x="140.14" y="318.07" width="30.21" height="30.21"/><path class="cls-5" d="M170.8,348.73H139.69V317.62H170.8Zm-30.21-.9H169.9V318.52H140.59Z"/><path class="cls-5" d="M207.63,349.18h-32v-32h32Zm-30.21-1.8h28.41V319H177.42Z"/><text class="cls-7" transform="translate(40.05 340.82)">V</text><text class="cls-7" transform="translate(76 340.82)">A</text><text class="cls-7" transform="translate(111.89 340.82)">G</text><text class="cls-6" transform="translate(148.06 340.82)">U</text><text class="cls-7" transform="translate(185.83 340.82)">E</text><text class="cls-3" transform="translate(30.14 377.59)">The letter<tspan class="cls-2" x="65.81" y="0" xml:space="preserve"> U </tspan><tspan x="83.68" y="0">is not in the word in any spot.</tspan></text><line class="cls-11" x1="27.8" y1="109.44" x2="402.58" y2="109.44"/></svg>