<svg id="Layer_1" data-name="Layer 1" xmlns="http://www.w3.org/2000/svg" viewBox="0 0 300.33 300.33"><defs><style>.cls-1{fill:#f7931e;}.cls-2{fill:#b3b3b3;}.cls-3{fill:#29abe2;}.cls-4{opacity:0.07;}.cls-5,.cls-6{fill:#fff;}.cls-5{opacity:0.13;}.cls-6{font-size:14px;font-family:MyriadPro-Bold, Myriad Pro;font-weight:700;}.cls-7{fill:#39b54a;}.cls-8{fill:#bc842c;}.cls-9{fill:#fbb03b;}.cls-10{fill:#8c6239;}</style></defs><title>success</title><path class="cls-1" d="M121.48,42.2h3.63V55.15h6.35v3h-10Z"/><path class="cls-1" d="M136,53.54c.12,1.49,1.59,2.2,3.27,2.2a10.21,10.21,0,0,0,3.2-.47l.47,2.44a11.45,11.45,0,0,1-4.2.71c-3.94,0-6.19-2.28-6.19-5.9,0-2.94,1.83-6.19,5.86-6.19,3.75,0,5.17,2.92,5.17,5.79a8.53,8.53,0,0,1-.12,1.42Zm4.24-2.47a2.09,2.09,0,0,0-2-2.35A2.37,2.37,0,0,0,136,51.07Z"/><path class="cls-1" d="M148.33,46.59,149.89,52a26.87,26.87,0,0,1,.66,2.82h.07c.19-.95.38-1.83.64-2.82l1.49-5.38h3.79l-4.32,11.59h-3.6l-4.22-11.59Z"/><path class="cls-1" d="M160.63,53.54c.12,1.49,1.59,2.2,3.27,2.2a10.21,10.21,0,0,0,3.2-.47l.47,2.44a11.45,11.45,0,0,1-4.2.71c-3.94,0-6.19-2.28-6.19-5.9,0-2.94,1.83-6.19,5.86-6.19,3.75,0,5.17,2.92,5.17,5.79a8.53,8.53,0,0,1-.12,1.42Zm4.24-2.47a2.09,2.09,0,0,0-2-2.35,2.37,2.37,0,0,0-2.23,2.35Z"/><path class="cls-1" d="M170.38,41.35H174V58.18h-3.6Z"/><path class="cls-1" d="M105.29,78.62a10.31,10.31,0,0,1-4.1.69c-5.52,0-8.37-3.44-8.37-8,0-5.45,3.89-8.49,8.73-8.49a9.41,9.41,0,0,1,3.94.71l-.74,2.87a7.8,7.8,0,0,0-3-.59c-2.87,0-5.1,1.73-5.1,5.29,0,3.2,1.9,5.22,5.12,5.22a9,9,0,0,0,3-.52Z"/><path class="cls-1" d="M118.54,73.14a5.82,5.82,0,0,1-6.12,6.19,5.68,5.68,0,0,1-6-6,5.79,5.79,0,0,1,6.19-6.14A5.64,5.64,0,0,1,118.54,73.14Zm-8.39.12c0,2,.83,3.49,2.37,3.49s2.3-1.4,2.3-3.49c0-1.73-.66-3.49-2.3-3.49S110.15,71.55,110.15,73.26Z"/><path class="cls-1" d="M120.77,71.17c0-1.45,0-2.68-.09-3.7h3l.17,1.57h.07a4,4,0,0,1,3.51-1.83,3.29,3.29,0,0,1,3.18,2h0a5.19,5.19,0,0,1,1.49-1.4,4.19,4.19,0,0,1,2.21-.57c2.23,0,3.91,1.56,3.91,5v6.83h-3.51V72.76c0-1.68-.55-2.66-1.71-2.66a1.76,1.76,0,0,0-1.66,1.26,3,3,0,0,0-.14.92v6.78h-3.51v-6.5c0-1.47-.52-2.47-1.66-2.47a1.83,1.83,0,0,0-1.68,1.3,2.39,2.39,0,0,0-.14.9v6.76h-3.51Z"/><path class="cls-1" d="M141.16,71.36c0-1.52,0-2.82-.09-3.89h3.13l.17,1.61h0a4.45,4.45,0,0,1,3.86-1.87c2.54,0,4.81,2.21,4.81,5.9,0,4.22-2.68,6.21-5.26,6.21a3.6,3.6,0,0,1-3-1.33h0v5.76h-3.6Zm3.6,2.73a3.61,3.61,0,0,0,.07.76,2.18,2.18,0,0,0,2.11,1.71c1.57,0,2.49-1.3,2.49-3.27S148.61,70,147,70a2.26,2.26,0,0,0-2.16,1.83,2.81,2.81,0,0,0-.07.64Z"/><path class="cls-1" d="M155.34,62.23h3.6V79.07h-3.6Z"/><path class="cls-1" d="M164.64,74.42c.12,1.49,1.59,2.21,3.27,2.21a10.22,10.22,0,0,0,3.2-.47l.47,2.44a11.45,11.45,0,0,1-4.2.71c-3.94,0-6.19-2.28-6.19-5.9,0-2.94,1.83-6.19,5.86-6.19,3.75,0,5.17,2.92,5.17,5.79a8.52,8.52,0,0,1-.12,1.42ZM168.88,72a2.09,2.09,0,0,0-2-2.35A2.37,2.37,0,0,0,164.62,72Z"/><path class="cls-1" d="M178.42,64.15v3.32H181v2.66h-2.58v4.2c0,1.4.33,2,1.42,2a5.88,5.88,0,0,0,1.07-.09l0,2.73a7.07,7.07,0,0,1-2.35.31,3.75,3.75,0,0,1-2.7-1,4.8,4.8,0,0,1-1-3.44V70.13h-1.54V67.47h1.54V65Z"/><path class="cls-1" d="M185.75,74.42c.12,1.49,1.59,2.21,3.27,2.21a10.22,10.22,0,0,0,3.2-.47l.47,2.44a11.45,11.45,0,0,1-4.2.71c-3.94,0-6.19-2.28-6.19-5.9,0-2.94,1.83-6.19,5.86-6.19,3.75,0,5.17,2.92,5.17,5.79a8.51,8.51,0,0,1-.12,1.42ZM190,72a2.09,2.09,0,0,0-2-2.35A2.37,2.37,0,0,0,185.72,72Z"/><path class="cls-1" d="M206.73,62.23V75.6c0,1.3,0,2.68.09,3.46h-3.2l-.17-1.71h0a4,4,0,0,1-3.63,2c-2.75,0-5-2.35-5-6,0-3.91,2.42-6.16,5.19-6.16a3.53,3.53,0,0,1,3.06,1.3h0V62.23Zm-3.6,10.15a5.69,5.69,0,0,0,0-.64A2.16,2.16,0,0,0,201,70c-1.64,0-2.49,1.47-2.49,3.3s1,3.2,2.47,3.2A2.11,2.11,0,0,0,203,74.73a3.06,3.06,0,0,0,.09-.83Z"/><rect class="cls-2" x="165.2" y="246.94" width="82.85" height="23.13" rx="4.96" ry="4.96"/><rect class="cls-2" x="52.28" y="246.94" width="82.85" height="23.13" rx="4.96" ry="4.96"/><rect class="cls-3" x="52.28" y="244.94" width="82.85" height="23.13" rx="4.96" ry="4.96"/><path class="cls-4" d="M135.13,249.9v4.43c-1.48-.6-4.24-.71-9.36.9-1.1.34-2.31.76-3.65,1.28-15,5.81-41.5-3.32-54-2.82s-14.78-6.84-14.78-6.84h0a4.92,4.92,0,0,1,3.89-1.91h72.93A5,5,0,0,1,135.13,249.9Z"/><path class="cls-5" d="M135.13,254.34v8.78a5,5,0,0,1-5,5H57.24a5,5,0,0,1-5-5V249.91a4.93,4.93,0,0,1,1.06-3s2.28,7.34,14.78,6.84,39,8.63,54,2.82c1.34-.52,2.55-.94,3.65-1.28C130.89,253.63,133.65,253.74,135.13,254.34Z"/><text class="cls-6" transform="translate(75.14 260.94)">Replay</text><rect class="cls-7" x="165.2" y="244.94" width="82.85" height="23.13" rx="4.96" ry="4.96"/><path class="cls-4" d="M248.06,249.9v4.43c-1.48-.6-4.24-.71-9.36.9-1.1.34-2.31.76-3.65,1.28-15,5.81-41.5-3.32-54-2.82s-14.78-6.84-14.78-6.84h0a4.92,4.92,0,0,1,3.89-1.91H243.1A5,5,0,0,1,248.06,249.9Z"/><path class="cls-5" d="M248.06,254.34v8.78a5,5,0,0,1-5,5H170.17a5,5,0,0,1-5-5V249.91a4.93,4.93,0,0,1,1.06-3s2.28,7.34,14.78,6.84,39,8.63,54,2.82c1.34-.52,2.55-.94,3.65-1.28C243.82,253.63,246.58,253.74,248.06,254.34Z"/><text class="cls-6" transform="translate(194.58 260.94)">Next</text><path class="cls-8" d="M150.92,108.06l3.52,7.13a.84.84,0,0,0,.63.46l7.86,1.14a.84.84,0,0,1,.46,1.43l-5.69,5.55a.84.84,0,0,0-.24.74l1.34,7.83a.84.84,0,0,1-1.21.88l-7-3.7a.84.84,0,0,0-.78,0l-7,3.7a.84.84,0,0,1-1.21-.88l1.34-7.83a.84.84,0,0,0-.24-.74l-5.69-5.55a.84.84,0,0,1,.46-1.43l7.86-1.14a.84.84,0,0,0,.63-.46l3.52-7.13A.84.84,0,0,1,150.92,108.06Z"/><path class="cls-9" d="M150.92,106l3.52,7.13a.84.84,0,0,0,.63.46l7.86,1.14a.84.84,0,0,1,.46,1.43l-5.69,5.55a.84.84,0,0,0-.24.74l1.34,7.83a.84.84,0,0,1-1.21.88l-7-3.7a.84.84,0,0,0-.78,0l-7,3.7a.84.84,0,0,1-1.21-.88l1.34-7.83a.84.84,0,0,0-.24-.74l-5.69-5.55a.84.84,0,0,1,.46-1.43l7.86-1.14a.84.84,0,0,0,.63-.46l3.52-7.13A.84.84,0,0,1,150.92,106Z"/><path class="cls-10" d="M158,131.58a1.2,1.2,0,0,1-.56-.14l-7-3.7a.47.47,0,0,0-.43,0l-7,3.7a1.21,1.21,0,0,1-1.75-1.27l1.34-7.83a.47.47,0,0,0-.13-.41l-5.69-5.55a1.21,1.21,0,0,1,.67-2.06l7.86-1.14a.47.47,0,0,0,.35-.26l3.52-7.13a1.21,1.21,0,0,1,2.17,0l3.52,7.12a.47.47,0,0,0,.35.26l7.86,1.14a1.21,1.21,0,0,1,.67,2.06L158,121.92a.47.47,0,0,0-.13.41l1.34,7.83a1.21,1.21,0,0,1-1.19,1.41Zm-7.81-4.63a1.2,1.2,0,0,1,.56.14l7,3.7a.47.47,0,0,0,.68-.49l-1.34-7.83a1.21,1.21,0,0,1,.35-1.07l5.69-5.55a.47.47,0,0,0-.26-.8L155,113.91a1.21,1.21,0,0,1-.91-.66l-3.52-7.13a.48.48,0,0,0-.84,0l-3.52,7.12a1.2,1.2,0,0,1-.91.66L137.46,115a.47.47,0,0,0-.26.8l5.69,5.55a1.21,1.21,0,0,1,.35,1.07l-1.34,7.83a.47.47,0,0,0,.68.49l7-3.7A1.21,1.21,0,0,1,150.17,126.95Z"/><path class="cls-8" d="M192,112.25l3.52,7.13a.84.84,0,0,0,.63.46L204,121a.84.84,0,0,1,.46,1.43L198.74,128a.84.84,0,0,0-.24.74l1.34,7.83a.84.84,0,0,1-1.21.88l-7-3.7a.84.84,0,0,0-.78,0l-7,3.7a.84.84,0,0,1-1.21-.88l1.34-7.83a.84.84,0,0,0-.24-.74L178,122.41a.84.84,0,0,1,.46-1.43l7.86-1.14a.84.84,0,0,0,.63-.46l3.52-7.13A.84.84,0,0,1,192,112.25Z"/><path class="cls-9" d="M192,110.16l3.52,7.13a.84.84,0,0,0,.63.46l7.86,1.14a.84.84,0,0,1,.46,1.43l-5.69,5.55a.84.84,0,0,0-.24.74l1.34,7.83a.84.84,0,0,1-1.21.88l-7-3.7a.84.84,0,0,0-.78,0l-7,3.7a.84.84,0,0,1-1.21-.88l1.34-7.83a.84.84,0,0,0-.24-.74L178,120.31a.84.84,0,0,1,.46-1.43l7.86-1.14a.84.84,0,0,0,.63-.46l3.52-7.13A.84.84,0,0,1,192,110.16Z"/><path class="cls-10" d="M183.39,135.78a1.21,1.21,0,0,1-1.19-1.41l1.34-7.83a.46.46,0,0,0-.13-.41l-5.69-5.55a1.21,1.21,0,0,1,.67-2.06l7.86-1.14a.47.47,0,0,0,.35-.26l3.52-7.13a1.21,1.21,0,0,1,2.17,0l3.52,7.13a.47.47,0,0,0,.35.26l7.86,1.14a1.21,1.21,0,0,1,.67,2.06L199,126.12a.47.47,0,0,0-.13.41l1.34,7.83a1.21,1.21,0,0,1-1.75,1.27l-7-3.7a.47.47,0,0,0-.43,0l-7,3.7A1.2,1.2,0,0,1,183.39,135.78Zm7.81-25.72a.46.46,0,0,0-.42.26l-3.52,7.13a1.21,1.21,0,0,1-.91.66l-7.86,1.14a.47.47,0,0,0-.26.8l5.69,5.55a1.21,1.21,0,0,1,.35,1.07l-1.34,7.83a.47.47,0,0,0,.68.49l7-3.7a1.21,1.21,0,0,1,1.12,0l7,3.7a.47.47,0,0,0,.68-.49l-1.34-7.83a1.21,1.21,0,0,1,.35-1.07l5.69-5.55a.47.47,0,0,0-.26-.8L196,118.11a1.21,1.21,0,0,1-.91-.66l-3.52-7.13A.46.46,0,0,0,191.2,110.06Z"/><path class="cls-8" d="M109.88,112.25l3.52,7.13a.84.84,0,0,0,.63.46l7.86,1.14a.84.84,0,0,1,.46,1.43L116.67,128a.84.84,0,0,0-.24.74l1.34,7.83a.84.84,0,0,1-1.21.88l-7-3.7a.84.84,0,0,0-.78,0l-7,3.7a.84.84,0,0,1-1.21-.88l1.34-7.83a.84.84,0,0,0-.24-.74l-5.69-5.55a.84.84,0,0,1,.46-1.43l7.86-1.14a.84.84,0,0,0,.63-.46l3.52-7.13A.84.84,0,0,1,109.88,112.25Z"/><path class="cls-9" d="M109.88,110.16l3.52,7.13a.84.84,0,0,0,.63.46l7.86,1.14a.84.84,0,0,1,.46,1.43l-5.69,5.55a.84.84,0,0,0-.24.74l1.34,7.83a.84.84,0,0,1-1.21.88l-7-3.7a.84.84,0,0,0-.78,0l-7,3.7a.84.84,0,0,1-1.21-.88l1.34-7.83a.84.84,0,0,0-.24-.74l-5.69-5.55a.84.84,0,0,1,.46-1.43l7.86-1.14a.84.84,0,0,0,.63-.46l3.52-7.13A.84.84,0,0,1,109.88,110.16Z"/><path class="cls-10" d="M101.32,135.78a1.21,1.21,0,0,1-1.19-1.41l1.34-7.83a.46.46,0,0,0-.13-.41l-5.69-5.55a1.21,1.21,0,0,1,.67-2.06l7.86-1.14a.47.47,0,0,0,.35-.26L108,110a1.21,1.21,0,0,1,2.17,0l3.52,7.13a.47.47,0,0,0,.35.26l7.86,1.14a1.21,1.21,0,0,1,.67,2.06l-5.69,5.55a.47.47,0,0,0-.13.41l1.34,7.83a1.21,1.21,0,0,1-1.75,1.27l-7-3.7a.47.47,0,0,0-.43,0l-7,3.7A1.2,1.2,0,0,1,101.32,135.78Zm7.81-25.72a.46.46,0,0,0-.42.26l-3.52,7.13a1.21,1.21,0,0,1-.91.66l-7.86,1.14a.47.47,0,0,0-.26.8l5.69,5.55a1.21,1.21,0,0,1,.35,1.07l-1.34,7.83a.47.47,0,0,0,.68.49l7-3.7a1.21,1.21,0,0,1,1.12,0l7,3.7a.47.47,0,0,0,.68-.49l-1.34-7.83a1.21,1.21,0,0,1,.35-1.07L122.1,120a.47.47,0,0,0-.26-.8L114,118.11a1.21,1.21,0,0,1-.91-.66l-3.52-7.13A.46.46,0,0,0,109.13,110.06Z"/></svg>